<?xml version="1.0" encoding="UTF-8" standalone="no"?>
<!-- Created with Inkscape (http://www.inkscape.org/) -->

<svg
   xmlns:dc="http://purl.org/dc/elements/1.1/"
   xmlns:cc="http://creativecommons.org/ns#"
   xmlns:rdf="http://www.w3.org/1999/02/22-rdf-syntax-ns#"
   xmlns:svg="http://www.w3.org/2000/svg"
   xmlns="http://www.w3.org/2000/svg"
   xmlns:xlink="http://www.w3.org/1999/xlink"
   xmlns:sodipodi="http://sodipodi.sourceforge.net/DTD/sodipodi-0.dtd"
   xmlns:inkscape="http://www.inkscape.org/namespaces/inkscape"
   width="64"
   height="64"
   id="svg2"
   version="1.1"
   inkscape:version="0.48.5 r10040"
   sodipodi:docname="New document 1">
  <defs
     id="defs4">
    <linearGradient
       id="linearGradient3757">
      <stop
         style="stop-color:#ce87ff;stop-opacity:1;"
         offset="0"
         id="stop3759" />
      <stop
         style="stop-color:#7500c5;stop-opacity:1;"
         offset="1"
         id="stop3761" />
    </linearGradient>
    <radialGradient
       inkscape:collect="always"
       xlink:href="#linearGradient3757"
       id="radialGradient3763"
       cx="32"
       cy="32"
       fx="32"
       fy="32"
       r="32"
       gradientUnits="userSpaceOnUse" />
  </defs>
  <sodipodi:namedview
     id="base"
     pagecolor="#ffffff"
     bordercolor="#666666"
     borderopacity="1.0"
     inkscape:pageopacity="0.0"
     inkscape:pageshadow="2"
     inkscape:zoom="15.5625"
     inkscape:cx="20.97992"
     inkscape:cy="34.570281"
     inkscape:document-units="px"
     inkscape:current-layer="layer1"
     showgrid="true"
     inkscape:window-width="1920"
     inkscape:window-height="1163"
     inkscape:window-x="1920"
     inkscape:window-y="37"
     inkscape:window-maximized="0">
    <inkscape:grid
       type="xygrid"
       id="grid2985"
       empspacing="5"
       visible="true"
       enabled="true"
       snapvisiblegridlinesonly="true"
       spacingx="4px"
       spacingy="4px" />
  </sodipodi:namedview>
  <metadata
     id="metadata7">
    <rdf:RDF>
      <cc:Work
         rdf:about="">
        <dc:format>image/svg+xml</dc:format>
        <dc:type
           rdf:resource="http://purl.org/dc/dcmitype/StillImage" />
        <dc:title></dc:title>
      </cc:Work>
    </rdf:RDF>
  </metadata>
  <g
     inkscape:label="Layer 1"
     inkscape:groupmode="layer"
     id="layer1"
     transform="translate(0,-988.36218)">
    <path
       sodipodi:type="arc"
       style="opacity:1;color:#000000;fill:url(#radialGradient3763);fill-opacity:1;fill-rule:nonzero;stroke:#1a1a1a;stroke-width:0;stroke-linejoin:miter;stroke-miterlimit:4;stroke-dasharray:none;marker:none;visibility:visible;display:inline;overflow:visible;enable-background:accumulate"
       id="path2987"
       sodipodi:cx="32"
       sodipodi:cy="32"
       sodipodi:rx="32"
       sodipodi:ry="32"
       d="m 64,32 a 32,32 0 1 1 -10e-7,-0.0074 L 32,32 z"
       transform="translate(0,988.36218)"
       sodipodi:start="0"
       sodipodi:end="6.2829555" />
    <path
       style="fill:#000000;stroke:#800080;stroke-width:1px;stroke-linecap:butt;stroke-linejoin:miter;stroke-opacity:1"
       d="m 4,1028.3622 c 24,32 56,0 56,0 -4,-8 -8,0 -8,0 0,0 0,-4 -4,-4 -4,0 -4,4 -4,4 0,0 0,-4 -4,-4 -4,0 -4,4 -4,4 0,0 0,-4 -4,-4 -4,0 -4,4 -4,4 0,0 0,-4 -4,-4 -4,0 -4,4 -4,4 0,0 0,-4 -4,-4 -4,0 -4,4 -4,4 0,0 0,-4 -4,-4 -4,0 -4,4 -4,4 z"
       id="path3765"
       inkscape:connector-curvature="0"
       sodipodi:nodetypes="cscscscscscscsc" />
    <path
       style="fill:#ffffff;stroke:#000000;stroke-width:1px;stroke-linecap:butt;stroke-linejoin:miter;stroke-opacity:1"
       d="m 8,1004.3622 16,8 4,-4 z"
       id="path3767"
       inkscape:connector-curvature="0" />
    <path
       style="fill:#ffffff;stroke:#000000;stroke-width:1px;stroke-linecap:butt;stroke-linejoin:miter;stroke-opacity:1"
       d="m 32,1008.3622 4,4 16,-8 z"
       id="path3769"
       inkscape:connector-curvature="0" />
    <path
       sodipodi:type="star"
       style="color:#000000;fill:#000000;fill-opacity:1;fill-rule:nonzero;stroke:#800080;stroke-width:0;stroke-linejoin:miter;stroke-miterlimit:4;stroke-dasharray:none;marker:none;visibility:visible;display:inline;overflow:visible;enable-background:accumulate"
       id="path3771"
       sodipodi:sides="6"
       sodipodi:cx="32"
       sodipodi:cy="8"
       sodipodi:r1="8"
       sodipodi:r2="4"
       sodipodi:arg1="3.1415927"
       sodipodi:arg2="3.1415927"
       inkscape:flatsided="false"
       inkscape:rounded="0"
       inkscape:randomized="0"
       d="m 24,8 4,-2e-7 0,-6.928203 2,3.4641015 L 36,1.0717968 34,4.5358985 40,8 l -4,2e-7 0,6.9282028 -2,-3.464101 -6,3.464101 2,-3.464101 z"
       transform="matrix(0.97339384,-0.22913847,0.22913847,0.97339384,-3.0760892,997.53084)" />
  </g>
</svg>
